<svg width="82" height="70" viewBox="0 0 82 70" fill="none" xmlns="http://www.w3.org/2000/svg">
<path d="M58.794 0C72.693 0 82 8.33 82 20.72V49.315C82 61.67 72.693 70 58.794 70H23.247C9.348 70 0 61.67 0 49.315V20.72C0 8.33 9.348 0 23.247 0H58.794ZM59.368 30.8035C56.662 30.8035 54.448 32.69 54.448 35C54.448 37.31 56.662 39.2 59.368 39.2C62.074 39.2 64.247 37.31 64.247 35C64.247 32.69 62.074 30.8035 59.368 30.8035ZM41 30.8035C38.294 30.8035 36.08 32.69 36.08 35C36.08 37.31 38.294 39.2 41 39.2C43.706 39.2 45.92 37.31 45.92 35C45.92 32.69 43.706 30.8035 41 30.8035ZM22.632 30.8035C19.926 30.8035 17.712 32.69 17.712 35C17.712 37.31 19.926 39.2 22.632 39.2C25.338 39.2 27.552 37.31 27.552 35C27.552 32.69 25.338 30.8035 22.632 30.8035Z" fill="black"/>
</svg>
