<svg width="60" height="50" viewBox="0 0 60 50" fill="none" xmlns="http://www.w3.org/2000/svg">
<path d="M47.7504 31.1032C46.9735 31.7637 46.6165 32.7189 46.7935 33.6556L49.4602 46.6021C49.6851 47.6994 49.1572 48.8099 48.1103 49.4441C47.0845 50.1019 45.7197 50.1809 44.6008 49.6546L31.3155 43.576C30.8536 43.3603 30.3407 43.2445 29.8157 43.2313H29.0028C28.7209 43.2682 28.4449 43.3471 28.1929 43.4681L14.9047 49.5756C14.2478 49.8651 13.5039 49.9677 12.775 49.8651C10.9992 49.5704 9.81435 48.0863 10.1053 46.5206L12.775 33.5741C12.9519 32.6294 12.595 31.6689 11.8181 30.9979L0.986499 21.788C0.0806169 21.017 -0.234342 19.8592 0.179604 18.8145C0.581551 17.7725 1.60742 17.012 2.84626 16.841L17.7543 14.9437C18.8882 14.8411 19.884 14.2359 20.394 13.3412L26.9631 1.52621C27.1191 1.26307 27.3201 1.02098 27.563 0.815735L27.833 0.631537C27.974 0.494704 28.136 0.381553 28.3159 0.289454L28.6429 0.184198L29.1528 0H30.4157C31.5435 0.102625 32.5364 0.69469 33.0553 1.57884L39.7114 13.3412C40.1914 14.2017 41.1243 14.799 42.2011 14.9437L57.1092 16.841C58.369 16.9989 59.4219 17.762 59.8388 18.8145C60.2318 19.8697 59.8928 21.0275 58.9689 21.788L47.7504 31.1032Z" fill="#FFEB00"/>
</svg>
